<mxfile host="app.diagrams.net" modified="2022-10-03T11:02:12.604Z" agent="5.0 (Windows NT 6.1; Win64; x64) AppleWebKit/537.36 (KHTML, like Gecko) Chrome/106.0.0.0 Safari/537.36" etag="PiOVJ0Ocwxi4Hczjjloq" version="20.3.6" type="github" pages="2">
  <diagram id="C5RBs43oDa-KdzZeNtuy" name="service">
    <mxGraphModel dx="1422" dy="912" grid="1" gridSize="10" guides="1" tooltips="1" connect="1" arrows="1" fold="1" page="1" pageScale="1" pageWidth="827" pageHeight="1169" math="0" shadow="0">
      <root>
        <mxCell id="WIyWlLk6GJQsqaUBKTNV-0" />
        <mxCell id="WIyWlLk6GJQsqaUBKTNV-1" parent="WIyWlLk6GJQsqaUBKTNV-0" />
        <mxCell id="TnnzGRk08jkUrDA6-9OY-7" value="&lt;&lt; interface &gt;&gt;&#xa;ProductService" style="swimlane;fontStyle=1;align=center;verticalAlign=middle;childLayout=stackLayout;horizontal=1;startSize=40;horizontalStack=0;resizeParent=1;resizeLast=0;collapsible=1;marginBottom=0;rounded=0;shadow=0;strokeWidth=1;" parent="WIyWlLk6GJQsqaUBKTNV-1" vertex="1">
          <mxGeometry x="80" y="20" width="370" height="300" as="geometry">
            <mxRectangle x="260" y="20" width="170" height="26" as="alternateBounds" />
          </mxGeometry>
        </mxCell>
        <mxCell id="TnnzGRk08jkUrDA6-9OY-8" value="" style="line;html=1;strokeWidth=1;align=left;verticalAlign=middle;spacingTop=-1;spacingLeft=3;spacingRight=3;rotatable=0;labelPosition=right;points=[];portConstraint=eastwest;" parent="TnnzGRk08jkUrDA6-9OY-7" vertex="1">
          <mxGeometry y="40" width="370" height="20" as="geometry" />
        </mxCell>
        <mxCell id="TnnzGRk08jkUrDA6-9OY-9" value="&lt;p style=&quot;margin-top: 0pt; margin-bottom: 0pt; margin-left: 0in; direction: ltr; unicode-bidi: embed; word-break: normal;&quot;&gt;&lt;span style=&quot;font-size: 9pt; font-family: Calibri;&quot;&gt;+&lt;/span&gt;&lt;span style=&quot;font-size: 9pt; font-family: Calibri;&quot;&gt; &lt;/span&gt;&lt;span style=&quot;font-size: 9pt; font-family: Calibri;&quot;&gt;getProducts&amp;nbsp;&lt;/span&gt;&lt;span style=&quot;font-size: 9pt; font-family: Calibri;&quot;&gt;( product : &lt;/span&gt;&lt;span style=&quot;font-size: 9pt; font-family: Calibri;&quot;&gt;Product &lt;/span&gt;&lt;span style=&quot;font-size: 9pt; font-family: Calibri;&quot;&gt;) &lt;/span&gt;&lt;span style=&quot;font-size: 9pt; font-family: Calibri;&quot;&gt;:&amp;nbsp;&lt;/span&gt;&lt;span style=&quot;font-size: 9pt; font-family: Calibri;&quot;&gt;List&amp;lt;Product&lt;/span&gt;&lt;span style=&quot;font-size: 9pt; font-family: Calibri;&quot;&gt;&amp;gt;&lt;/span&gt;&lt;/p&gt;&lt;p style=&quot;margin-top: 0pt; margin-bottom: 0pt; margin-left: 0in; direction: ltr; unicode-bidi: embed; word-break: normal;&quot;&gt;&lt;/p&gt;&lt;span style=&quot;font-family: Calibri;&quot;&gt;+ getProductsAdmin ( product :&amp;nbsp;&lt;/span&gt;&lt;font face=&quot;Calibri&quot;&gt;Product ) :&amp;nbsp;List&amp;lt;Product&amp;gt;&lt;br&gt;+ getProductsOne ( productId :&amp;nbsp;&lt;/font&gt;&lt;span style=&quot;font-family: Calibri;&quot;&gt;Integer&amp;nbsp;&lt;/span&gt;&lt;font face=&quot;Calibri&quot;&gt;) : Product&lt;br&gt;&lt;/font&gt;&lt;p style=&quot;margin-top: 0pt; margin-bottom: 0pt; margin-left: 0in; direction: ltr; unicode-bidi: embed; word-break: normal;&quot;&gt;&lt;span style=&quot;font-size: 9pt; font-family: Calibri;&quot;&gt;+&lt;/span&gt;&lt;span style=&quot;font-size: 9pt; font-family: Calibri;&quot;&gt; &lt;/span&gt;&lt;span style=&quot;font-size: 9pt; font-family: Calibri;&quot;&gt;postProducts&amp;nbsp;&lt;/span&gt;&lt;span style=&quot;font-size: 9pt; font-family: Calibri;&quot;&gt;( product : Product ) : Integer&lt;/span&gt;&lt;/p&gt;&lt;p style=&quot;margin-top: 0pt; margin-bottom: 0pt; margin-left: 0in; direction: ltr; unicode-bidi: embed; word-break: normal;&quot;&gt;&lt;span style=&quot;font-size: 9pt; font-family: Calibri;&quot;&gt;+&lt;/span&gt;&lt;span style=&quot;font-size: 9pt; font-family: Calibri;&quot;&gt; &lt;/span&gt;&lt;span style=&quot;font-size: 9pt; font-family: Calibri;&quot;&gt;getProductId&amp;nbsp;&lt;/span&gt;&lt;span style=&quot;font-size: 9pt; font-family: Calibri;&quot;&gt;( &lt;/span&gt;&lt;span style=&quot;font-size: 9pt; font-family: Calibri;&quot;&gt;productImg&lt;/span&gt;&lt;span style=&quot;font-size: 9pt; font-family: Calibri;&quot;&gt; : String ) : Integer&lt;/span&gt;&lt;span style=&quot;font-family: Calibri; background-color: initial;&quot;&gt;&amp;nbsp;&lt;/span&gt;&lt;/p&gt;&lt;span style=&quot;font-family: Calibri;&quot;&gt;+ updateProduct (userId :&amp;nbsp;&lt;/span&gt;&lt;span style=&quot;font-family: Calibri;&quot;&gt;Integer&amp;nbsp;&lt;/span&gt;&lt;span style=&quot;font-family: Calibri; background-color: initial;&quot;&gt;,&lt;br&gt;&lt;/span&gt;&lt;blockquote style=&quot;margin: 0 0 0 40px; border: none; padding: 0px;&quot;&gt;&lt;blockquote style=&quot;margin: 0 0 0 40px; border: none; padding: 0px;&quot;&gt;&lt;span style=&quot;font-family: Calibri; background-color: initial;&quot;&gt;&amp;nbsp;productImage :&amp;nbsp;&lt;/span&gt;&lt;span style=&quot;font-family: Calibri;&quot;&gt;String&amp;nbsp;&lt;/span&gt;&lt;span style=&quot;font-family: Calibri; background-color: initial;&quot;&gt;,&lt;br&gt;&lt;/span&gt;&lt;/blockquote&gt;&lt;blockquote style=&quot;margin: 0 0 0 40px; border: none; padding: 0px;&quot;&gt;&lt;span style=&quot;font-family: Calibri; background-color: initial;&quot;&gt;&amp;nbsp;productName :&amp;nbsp;&lt;/span&gt;&lt;span style=&quot;font-family: Calibri;&quot;&gt;String&amp;nbsp;&lt;/span&gt;&lt;span style=&quot;font-family: Calibri; background-color: initial;&quot;&gt;,&lt;br&gt;&lt;/span&gt;&lt;/blockquote&gt;&lt;blockquote style=&quot;margin: 0 0 0 40px; border: none; padding: 0px;&quot;&gt;&lt;span style=&quot;font-family: Calibri; background-color: initial;&quot;&gt;&amp;nbsp;productDescription :&amp;nbsp;&lt;/span&gt;&lt;span style=&quot;font-family: Calibri;&quot;&gt;String&amp;nbsp;&lt;/span&gt;&lt;span style=&quot;font-family: Calibri; background-color: initial;&quot;&gt;,&lt;br&gt;&lt;/span&gt;&lt;/blockquote&gt;&lt;blockquote style=&quot;margin: 0 0 0 40px; border: none; padding: 0px;&quot;&gt;&lt;span style=&quot;font-family: Calibri; background-color: initial;&quot;&gt;&amp;nbsp;price :&amp;nbsp;&lt;/span&gt;&lt;span style=&quot;font-family: Calibri;&quot;&gt;Integer&lt;/span&gt;&lt;span style=&quot;font-family: Calibri; background-color: initial;&quot;&gt;,&lt;br&gt;&lt;/span&gt;&lt;/blockquote&gt;&lt;blockquote style=&quot;margin: 0 0 0 40px; border: none; padding: 0px;&quot;&gt;&lt;span style=&quot;font-family: Calibri; background-color: initial;&quot;&gt;&amp;nbsp;release :&amp;nbsp;&lt;/span&gt;&lt;span style=&quot;font-family: Calibri;&quot;&gt;boolean&lt;/span&gt;&lt;span style=&quot;font-family: Calibri; background-color: initial;&quot;&gt;) :&amp;nbsp; void&lt;br&gt;&lt;/span&gt;&lt;/blockquote&gt;&lt;/blockquote&gt;&lt;font face=&quot;Calibri&quot;&gt;+ whenUploadFileUsingJsch_thenSuccess&amp;nbsp;( newName :&amp;nbsp;&lt;/font&gt;&lt;span style=&quot;font-family: Calibri;&quot;&gt;File&amp;nbsp;&lt;/span&gt;&lt;font face=&quot;Calibri&quot;&gt;) : void&lt;br&gt;+ whenDeleteFileUsingJsch_thenSuccess ( newName :&amp;nbsp;&lt;/font&gt;&lt;span style=&quot;font-family: Calibri;&quot;&gt;String&amp;nbsp;&lt;/span&gt;&lt;font face=&quot;Calibri&quot;&gt;) : void&lt;br&gt;+ postProductImageFolder ( file :&amp;nbsp;&lt;/font&gt;&lt;span style=&quot;font-family: Calibri;&quot;&gt;MultipartFile&amp;nbsp;&lt;/span&gt;&lt;font face=&quot;Calibri&quot;&gt;) : File&lt;br&gt;+ deleteProduct ( productId :&amp;nbsp;&lt;/font&gt;&lt;span style=&quot;font-family: Calibri;&quot;&gt;Integer&amp;nbsp;&lt;/span&gt;&lt;font face=&quot;Calibri&quot;&gt;) : void&lt;br&gt;+ deleteProductImage ( fileName :&amp;nbsp;&lt;/font&gt;&lt;span style=&quot;font-family: Calibri;&quot;&gt;String&amp;nbsp;&lt;/span&gt;&lt;font face=&quot;Calibri&quot;&gt;) : void&lt;br&gt;&lt;/font&gt;" style="text;align=left;verticalAlign=middle;resizable=0;points=[];autosize=1;strokeColor=none;fillColor=none;spacing=2;html=1;spacingTop=-1;" parent="TnnzGRk08jkUrDA6-9OY-7" vertex="1">
          <mxGeometry y="60" width="370" height="240" as="geometry" />
        </mxCell>
        <mxCell id="i2O5NSJqbqHjVbn4kxMg-1" style="edgeStyle=orthogonalEdgeStyle;rounded=0;orthogonalLoop=1;jettySize=auto;html=1;exitX=0.5;exitY=0;exitDx=0;exitDy=0;entryX=0.5;entryY=1;entryDx=0;entryDy=0;dashed=1;" edge="1" parent="WIyWlLk6GJQsqaUBKTNV-1" source="TnnzGRk08jkUrDA6-9OY-10" target="TnnzGRk08jkUrDA6-9OY-7">
          <mxGeometry relative="1" as="geometry" />
        </mxCell>
        <mxCell id="TnnzGRk08jkUrDA6-9OY-10" value="&lt;&lt; Service &gt;&gt;&#xa;ProductServiceImpl" style="swimlane;fontStyle=1;align=center;verticalAlign=middle;childLayout=stackLayout;horizontal=1;startSize=40;horizontalStack=0;resizeParent=1;resizeLast=0;collapsible=1;marginBottom=0;rounded=0;shadow=0;strokeWidth=1;" parent="WIyWlLk6GJQsqaUBKTNV-1" vertex="1">
          <mxGeometry x="80" y="360" width="370" height="370" as="geometry">
            <mxRectangle x="260" y="180" width="170" height="26" as="alternateBounds" />
          </mxGeometry>
        </mxCell>
        <mxCell id="TnnzGRk08jkUrDA6-9OY-13" value="- repository : ProductRepository&lt;br&gt;-&amp;nbsp;remoteHost : String&lt;br&gt;-&amp;nbsp;username : String&lt;br&gt;-&amp;nbsp;password : String&lt;br&gt;-&amp;nbsp;setupJsch () :&amp;nbsp;ChannelSftp" style="text;align=left;verticalAlign=middle;resizable=0;points=[];autosize=1;strokeColor=none;fillColor=none;spacing=2;spacingTop=1;spacingBottom=0;html=1;" parent="TnnzGRk08jkUrDA6-9OY-10" vertex="1">
          <mxGeometry y="40" width="370" height="80" as="geometry" />
        </mxCell>
        <mxCell id="TnnzGRk08jkUrDA6-9OY-11" value="" style="line;html=1;strokeWidth=1;align=left;verticalAlign=middle;spacingTop=-1;spacingLeft=3;spacingRight=3;rotatable=0;labelPosition=right;points=[];portConstraint=eastwest;" parent="TnnzGRk08jkUrDA6-9OY-10" vertex="1">
          <mxGeometry y="120" width="370" height="10" as="geometry" />
        </mxCell>
        <mxCell id="TnnzGRk08jkUrDA6-9OY-12" value="&lt;p style=&quot;margin-top: 0pt; margin-bottom: 0pt; margin-left: 0in; direction: ltr; unicode-bidi: embed; word-break: normal;&quot;&gt;&lt;span style=&quot;font-size: 9pt; font-family: Calibri;&quot;&gt;+&lt;/span&gt;&lt;span style=&quot;font-size: 9pt; font-family: Calibri;&quot;&gt;&amp;nbsp;&lt;/span&gt;&lt;span style=&quot;font-size: 9pt; font-family: Calibri;&quot;&gt;getProducts&amp;nbsp;&lt;/span&gt;&lt;span style=&quot;font-size: 9pt; font-family: Calibri;&quot;&gt;( product :&amp;nbsp;&lt;/span&gt;&lt;span style=&quot;font-size: 9pt; font-family: Calibri;&quot;&gt;Product&amp;nbsp;&lt;/span&gt;&lt;span style=&quot;font-size: 9pt; font-family: Calibri;&quot;&gt;)&amp;nbsp;&lt;/span&gt;&lt;span style=&quot;font-size: 9pt; font-family: Calibri;&quot;&gt;:&amp;nbsp;&lt;/span&gt;&lt;span style=&quot;font-size: 9pt; font-family: Calibri;&quot;&gt;List&amp;lt;Product&lt;/span&gt;&lt;span style=&quot;font-size: 9pt; font-family: Calibri;&quot;&gt;&amp;gt;&lt;/span&gt;&lt;/p&gt;&lt;p style=&quot;margin-top: 0pt; margin-bottom: 0pt; margin-left: 0in; direction: ltr; unicode-bidi: embed; word-break: normal;&quot;&gt;&lt;/p&gt;&lt;p style=&quot;margin-top: 0pt; margin-bottom: 0pt; margin-left: 0in; direction: ltr; unicode-bidi: embed; word-break: normal;&quot;&gt;&lt;span style=&quot;font-family: Calibri;&quot;&gt;+ getProductsAdmin ( product :&amp;nbsp;&lt;/span&gt;&lt;font face=&quot;Calibri&quot;&gt;Product ) :&amp;nbsp;List&amp;lt;Product&amp;gt;&lt;br&gt;+ getProductsOne ( productId :&amp;nbsp;&lt;/font&gt;&lt;span style=&quot;font-family: Calibri;&quot;&gt;Integer&amp;nbsp;&lt;/span&gt;&lt;font face=&quot;Calibri&quot;&gt;) : Product&lt;br&gt;&lt;/font&gt;&lt;/p&gt;&lt;p style=&quot;margin-top: 0pt; margin-bottom: 0pt; margin-left: 0in; direction: ltr; unicode-bidi: embed; word-break: normal;&quot;&gt;&lt;span style=&quot;font-size: 9pt; font-family: Calibri;&quot;&gt;+&lt;/span&gt;&lt;span style=&quot;font-size: 9pt; font-family: Calibri;&quot;&gt;&amp;nbsp;&lt;/span&gt;&lt;span style=&quot;font-size: 9pt; font-family: Calibri;&quot;&gt;postProducts&amp;nbsp;&lt;/span&gt;&lt;span style=&quot;font-size: 9pt; font-family: Calibri;&quot;&gt;( product : Product ) : Integer&lt;/span&gt;&lt;/p&gt;&lt;p style=&quot;margin-top: 0pt; margin-bottom: 0pt; margin-left: 0in; direction: ltr; unicode-bidi: embed; word-break: normal;&quot;&gt;&lt;span style=&quot;font-size: 9pt; font-family: Calibri;&quot;&gt;+&lt;/span&gt;&lt;span style=&quot;font-size: 9pt; font-family: Calibri;&quot;&gt;&amp;nbsp;&lt;/span&gt;&lt;span style=&quot;font-size: 9pt; font-family: Calibri;&quot;&gt;getProductId&amp;nbsp;&lt;/span&gt;&lt;span style=&quot;font-size: 9pt; font-family: Calibri;&quot;&gt;(&amp;nbsp;&lt;/span&gt;&lt;span style=&quot;font-size: 9pt; font-family: Calibri;&quot;&gt;productImg&lt;/span&gt;&lt;span style=&quot;font-size: 9pt; font-family: Calibri;&quot;&gt;&amp;nbsp;: String ) : Integer&lt;/span&gt;&lt;span style=&quot;font-family: Calibri; background-color: initial;&quot;&gt;&amp;nbsp;&lt;/span&gt;&lt;/p&gt;&lt;p style=&quot;margin-top: 0pt; margin-bottom: 0pt; margin-left: 0in; direction: ltr; unicode-bidi: embed; word-break: normal;&quot;&gt;&lt;span style=&quot;font-family: Calibri;&quot;&gt;+ updateProduct (userId :&amp;nbsp;&lt;/span&gt;&lt;span style=&quot;font-family: Calibri;&quot;&gt;Integer&amp;nbsp;&lt;/span&gt;&lt;span style=&quot;background-color: initial; font-family: Calibri;&quot;&gt;,&lt;/span&gt;&lt;/p&gt;&lt;blockquote style=&quot;margin: 0 0 0 40px; border: none; padding: 0px;&quot;&gt;&lt;blockquote style=&quot;margin: 0 0 0 40px; border: none; padding: 0px;&quot;&gt;&lt;p style=&quot;margin-top: 0pt; margin-bottom: 0pt; margin-left: 0in; direction: ltr; unicode-bidi: embed; word-break: normal;&quot;&gt;&lt;span style=&quot;background-color: initial; font-family: Calibri;&quot;&gt;&amp;nbsp;productImage :&amp;nbsp;&lt;/span&gt;&lt;span style=&quot;font-family: Calibri;&quot;&gt;String&amp;nbsp;&lt;/span&gt;&lt;span style=&quot;background-color: initial; font-family: Calibri;&quot;&gt;,&lt;/span&gt;&lt;/p&gt;&lt;/blockquote&gt;&lt;blockquote style=&quot;margin: 0 0 0 40px; border: none; padding: 0px;&quot;&gt;&lt;p style=&quot;margin-top: 0pt; margin-bottom: 0pt; margin-left: 0in; direction: ltr; unicode-bidi: embed; word-break: normal;&quot;&gt;&lt;span style=&quot;background-color: initial; font-family: Calibri;&quot;&gt;&amp;nbsp;productName :&amp;nbsp;&lt;/span&gt;&lt;span style=&quot;font-family: Calibri;&quot;&gt;String&amp;nbsp;&lt;/span&gt;&lt;span style=&quot;background-color: initial; font-family: Calibri;&quot;&gt;,&lt;/span&gt;&lt;/p&gt;&lt;/blockquote&gt;&lt;blockquote style=&quot;margin: 0 0 0 40px; border: none; padding: 0px;&quot;&gt;&lt;p style=&quot;margin-top: 0pt; margin-bottom: 0pt; margin-left: 0in; direction: ltr; unicode-bidi: embed; word-break: normal;&quot;&gt;&lt;span style=&quot;background-color: initial; font-family: Calibri;&quot;&gt;&amp;nbsp;productDescription :&amp;nbsp;&lt;/span&gt;&lt;span style=&quot;font-family: Calibri;&quot;&gt;String&amp;nbsp;&lt;/span&gt;&lt;span style=&quot;background-color: initial; font-family: Calibri;&quot;&gt;,&lt;/span&gt;&lt;/p&gt;&lt;/blockquote&gt;&lt;blockquote style=&quot;margin: 0 0 0 40px; border: none; padding: 0px;&quot;&gt;&lt;p style=&quot;margin-top: 0pt; margin-bottom: 0pt; margin-left: 0in; direction: ltr; unicode-bidi: embed; word-break: normal;&quot;&gt;&lt;span style=&quot;background-color: initial; font-family: Calibri;&quot;&gt;&amp;nbsp;price :&amp;nbsp;&lt;/span&gt;&lt;span style=&quot;font-family: Calibri;&quot;&gt;Integer&lt;/span&gt;&lt;span style=&quot;background-color: initial; font-family: Calibri;&quot;&gt;,&lt;/span&gt;&lt;/p&gt;&lt;/blockquote&gt;&lt;blockquote style=&quot;margin: 0 0 0 40px; border: none; padding: 0px;&quot;&gt;&lt;p style=&quot;margin-top: 0pt; margin-bottom: 0pt; margin-left: 0in; direction: ltr; unicode-bidi: embed; word-break: normal;&quot;&gt;&lt;span style=&quot;background-color: initial; font-family: Calibri;&quot;&gt;&amp;nbsp;release :&amp;nbsp;&lt;/span&gt;&lt;span style=&quot;font-family: Calibri;&quot;&gt;boolean&lt;/span&gt;&lt;span style=&quot;background-color: initial; font-family: Calibri;&quot;&gt;) :&amp;nbsp; void&lt;br&gt;&lt;/span&gt;&lt;/p&gt;&lt;/blockquote&gt;&lt;/blockquote&gt;&lt;p style=&quot;margin-top: 0pt; margin-bottom: 0pt; margin-left: 0in; direction: ltr; unicode-bidi: embed; word-break: normal;&quot;&gt;&lt;font face=&quot;Calibri&quot;&gt;+ whenUploadFileUsingJsch_thenSuccess&amp;nbsp;( newName :&amp;nbsp;&lt;/font&gt;&lt;span style=&quot;font-family: Calibri;&quot;&gt;File&amp;nbsp;&lt;/span&gt;&lt;font face=&quot;Calibri&quot;&gt;) : void&lt;br&gt;+ whenDeleteFileUsingJsch_thenSuccess ( newName :&amp;nbsp;&lt;/font&gt;&lt;span style=&quot;font-family: Calibri;&quot;&gt;String&amp;nbsp;&lt;/span&gt;&lt;font face=&quot;Calibri&quot;&gt;) : void&lt;br&gt;+ postProductImageFolder ( file :&amp;nbsp;&lt;/font&gt;&lt;span style=&quot;font-family: Calibri;&quot;&gt;MultipartFile&amp;nbsp;&lt;/span&gt;&lt;font face=&quot;Calibri&quot;&gt;) : File&lt;br&gt;+ deleteProduct ( productId :&amp;nbsp;&lt;/font&gt;&lt;span style=&quot;font-family: Calibri;&quot;&gt;Integer&amp;nbsp;&lt;/span&gt;&lt;font face=&quot;Calibri&quot;&gt;) : void&lt;br&gt;+ deleteProductImage ( fileName :&amp;nbsp;&lt;/font&gt;&lt;span style=&quot;font-family: Calibri;&quot;&gt;String&amp;nbsp;&lt;/span&gt;&lt;font face=&quot;Calibri&quot;&gt;) : void&lt;/font&gt;&lt;br&gt;&lt;/p&gt;" style="text;align=left;verticalAlign=middle;resizable=0;points=[];autosize=1;strokeColor=none;fillColor=none;spacing=2;html=1;spacingTop=-1;" parent="TnnzGRk08jkUrDA6-9OY-10" vertex="1">
          <mxGeometry y="130" width="370" height="240" as="geometry" />
        </mxCell>
        <mxCell id="i2O5NSJqbqHjVbn4kxMg-2" style="edgeStyle=orthogonalEdgeStyle;rounded=0;orthogonalLoop=1;jettySize=auto;html=1;exitX=0.5;exitY=0;exitDx=0;exitDy=0;entryX=0.5;entryY=1;entryDx=0;entryDy=0;" edge="1" parent="WIyWlLk6GJQsqaUBKTNV-1" source="TnnzGRk08jkUrDA6-9OY-14" target="TnnzGRk08jkUrDA6-9OY-10">
          <mxGeometry relative="1" as="geometry" />
        </mxCell>
        <mxCell id="TnnzGRk08jkUrDA6-9OY-14" value="&lt;&lt; interface &gt;&gt;&#xa;ProductRepository" style="swimlane;fontStyle=1;align=center;verticalAlign=middle;childLayout=stackLayout;horizontal=1;startSize=30;horizontalStack=0;resizeParent=1;resizeLast=0;collapsible=1;marginBottom=0;rounded=0;shadow=0;strokeWidth=1;" parent="WIyWlLk6GJQsqaUBKTNV-1" vertex="1">
          <mxGeometry x="20" y="770" width="490" height="210" as="geometry">
            <mxRectangle x="225" y="360" width="170" height="26" as="alternateBounds" />
          </mxGeometry>
        </mxCell>
        <mxCell id="TnnzGRk08jkUrDA6-9OY-15" value="" style="line;html=1;strokeWidth=1;align=left;verticalAlign=middle;spacingTop=-1;spacingLeft=3;spacingRight=3;rotatable=0;labelPosition=right;points=[];portConstraint=eastwest;" parent="TnnzGRk08jkUrDA6-9OY-14" vertex="1">
          <mxGeometry y="30" width="490" height="20" as="geometry" />
        </mxCell>
        <mxCell id="TnnzGRk08jkUrDA6-9OY-16" value="+&amp;nbsp;findByProductNameLikeAndReleaseIs ( name :String&amp;nbsp;, release :boolean&amp;nbsp;) :&amp;nbsp;List&amp;lt;Product&amp;gt;&lt;br&gt;+ findByProductNameLike( name : String ) : List&amp;lt;Product&amp;gt;&lt;br&gt;+ findByProductImageLike(image : String&amp;nbsp;) : Product&lt;br&gt;+&amp;nbsp;findAllByOrderByProductIdAsc() :&amp;nbsp;List&amp;lt;Product&amp;gt;&lt;br&gt;+&amp;nbsp;&lt;span style=&quot;background-color: initial;&quot;&gt;updateProduct ( userId :&amp;nbsp;&lt;/span&gt;Integer&lt;span style=&quot;background-color: initial;&quot;&gt;,&lt;br&gt;&lt;/span&gt;&lt;blockquote style=&quot;margin: 0 0 0 40px; border: none; padding: 0px;&quot;&gt;&lt;blockquote style=&quot;margin: 0 0 0 40px; border: none; padding: 0px;&quot;&gt;&lt;span style=&quot;background-color: initial;&quot;&gt;&amp;nbsp;&lt;/span&gt;&lt;span style=&quot;background-color: initial;&quot;&gt;productImage :&amp;nbsp;&lt;/span&gt;String,&lt;/blockquote&gt;&lt;blockquote style=&quot;margin: 0 0 0 40px; border: none; padding: 0px;&quot;&gt;&amp;nbsp;&lt;span style=&quot;background-color: initial;&quot;&gt;productName :&amp;nbsp;&lt;/span&gt;String&lt;span style=&quot;background-color: initial;&quot;&gt;,&lt;br&gt;&lt;/span&gt;&lt;/blockquote&gt;&lt;blockquote style=&quot;margin: 0 0 0 40px; border: none; padding: 0px;&quot;&gt;&lt;span style=&quot;background-color: initial;&quot;&gt;&amp;nbsp;&lt;/span&gt;&lt;span style=&quot;background-color: initial;&quot;&gt;productDescription :&amp;nbsp;&lt;/span&gt;String&lt;span style=&quot;background-color: initial;&quot;&gt;,&lt;br&gt;&lt;/span&gt;&lt;/blockquote&gt;&lt;blockquote style=&quot;margin: 0 0 0 40px; border: none; padding: 0px;&quot;&gt;&lt;span style=&quot;background-color: initial;&quot;&gt;&amp;nbsp;&lt;/span&gt;&lt;span style=&quot;background-color: initial;&quot;&gt;price :&amp;nbsp;&lt;/span&gt;Integer&lt;span style=&quot;background-color: initial;&quot;&gt;,&lt;br&gt;&lt;/span&gt;&lt;/blockquote&gt;&lt;blockquote style=&quot;margin: 0 0 0 40px; border: none; padding: 0px;&quot;&gt;&lt;span style=&quot;background-color: initial;&quot;&gt;&amp;nbsp;&lt;/span&gt;&lt;span style=&quot;background-color: initial;&quot;&gt;release :&lt;/span&gt;boolean&amp;nbsp;&lt;span style=&quot;background-color: initial;&quot;&gt;) :&amp;nbsp;Integer&lt;/span&gt;&lt;/blockquote&gt;&lt;/blockquote&gt;" style="text;align=left;verticalAlign=middle;resizable=0;points=[];autosize=1;strokeColor=none;fillColor=none;spacing=2;spacingTop=0;html=1;" parent="TnnzGRk08jkUrDA6-9OY-14" vertex="1">
          <mxGeometry y="50" width="490" height="160" as="geometry" />
        </mxCell>
        <mxCell id="i2O5NSJqbqHjVbn4kxMg-7" value="&lt;&lt; interface &gt;&gt;&#xa;UserService" style="swimlane;fontStyle=1;align=center;verticalAlign=middle;childLayout=stackLayout;horizontal=1;startSize=40;horizontalStack=0;resizeParent=1;resizeLast=0;collapsible=1;marginBottom=0;rounded=0;shadow=0;strokeWidth=1;" vertex="1" parent="WIyWlLk6GJQsqaUBKTNV-1">
          <mxGeometry x="630" y="30" width="300" height="130" as="geometry">
            <mxRectangle x="260" y="20" width="170" height="26" as="alternateBounds" />
          </mxGeometry>
        </mxCell>
        <mxCell id="i2O5NSJqbqHjVbn4kxMg-8" value="" style="line;html=1;strokeWidth=1;align=left;verticalAlign=middle;spacingTop=-1;spacingLeft=3;spacingRight=3;rotatable=0;labelPosition=right;points=[];portConstraint=eastwest;" vertex="1" parent="i2O5NSJqbqHjVbn4kxMg-7">
          <mxGeometry y="40" width="300" height="20" as="geometry" />
        </mxCell>
        <mxCell id="i2O5NSJqbqHjVbn4kxMg-9" value="&lt;p style=&quot;margin-top: 0pt; margin-bottom: 0pt; margin-left: 0in; direction: ltr; unicode-bidi: embed; word-break: normal;&quot;&gt;&lt;span style=&quot;font-size: 9pt; font-family: Calibri;&quot;&gt;+&lt;/span&gt;&lt;span style=&quot;font-size: 9pt; font-family: Calibri;&quot;&gt;&amp;nbsp;&lt;/span&gt;&lt;font face=&quot;Calibri&quot;&gt;postUserkaritouroku&lt;span style=&quot;font-size: 9pt;&quot;&gt;&amp;nbsp;( &lt;/span&gt;user&lt;span style=&quot;font-size: 9pt;&quot;&gt;&amp;nbsp;:&amp;nbsp;&lt;/span&gt;KariUser&lt;span style=&quot;font-size: 9pt;&quot;&gt;&amp;nbsp;&lt;/span&gt;&lt;/font&gt;&lt;span style=&quot;font-size: 9pt; font-family: Calibri;&quot;&gt;) &lt;/span&gt;&lt;span style=&quot;font-size: 9pt; font-family: Calibri;&quot;&gt;:&amp;nbsp;&lt;/span&gt;&lt;font face=&quot;Calibri&quot;&gt;Integer&lt;/font&gt;&lt;/p&gt;&lt;font face=&quot;Calibri&quot;&gt;+ getKariUser ( userId : Integer ) : KariUser&lt;br&gt;+ postEndUser ( endUser :&amp;nbsp;&lt;/font&gt;&lt;span style=&quot;font-family: Calibri;&quot;&gt;EndUser&lt;/span&gt;&lt;font face=&quot;Calibri&quot;&gt;, userId :&lt;/font&gt;&lt;span style=&quot;font-family: Calibri;&quot;&gt;Integer&amp;nbsp;&lt;/span&gt;&lt;font face=&quot;Calibri&quot;&gt;) void&lt;br&gt;+ getUsersOne ( userEmail :&lt;/font&gt;&lt;span style=&quot;font-family: Calibri;&quot;&gt;String&amp;nbsp;&lt;/span&gt;&lt;font face=&quot;Calibri&quot;&gt;) : Users&lt;br&gt;&lt;/font&gt;" style="text;align=left;verticalAlign=middle;resizable=0;points=[];autosize=1;strokeColor=none;fillColor=none;spacing=2;html=1;spacingTop=-1;" vertex="1" parent="i2O5NSJqbqHjVbn4kxMg-7">
          <mxGeometry y="60" width="300" height="70" as="geometry" />
        </mxCell>
        <mxCell id="RDtk-2zoQ-puTfouhz2l-0" value="Product" style="swimlane;fontStyle=1;align=center;verticalAlign=top;childLayout=stackLayout;horizontal=1;startSize=26;horizontalStack=0;resizeParent=1;resizeLast=0;collapsible=1;marginBottom=0;rounded=0;shadow=0;strokeWidth=1;" vertex="1" parent="WIyWlLk6GJQsqaUBKTNV-1">
          <mxGeometry x="580" y="1010" width="160" height="140" as="geometry">
            <mxRectangle x="550" y="140" width="160" height="26" as="alternateBounds" />
          </mxGeometry>
        </mxCell>
        <mxCell id="RDtk-2zoQ-puTfouhz2l-1" value="- productId : Integer&#xa;- productImage : String&#xa;- productName : String&#xa;- productDescription : String&#xa;- price : Integer&#xa;- release : boolean" style="text;align=left;verticalAlign=top;spacingLeft=4;spacingRight=4;overflow=hidden;rotatable=0;points=[[0,0.5],[1,0.5]];portConstraint=eastwest;" vertex="1" parent="RDtk-2zoQ-puTfouhz2l-0">
          <mxGeometry y="26" width="160" height="94" as="geometry" />
        </mxCell>
        <mxCell id="RDtk-2zoQ-puTfouhz2l-2" value="" style="line;html=1;strokeWidth=1;align=left;verticalAlign=middle;spacingTop=-1;spacingLeft=3;spacingRight=3;rotatable=0;labelPosition=right;points=[];portConstraint=eastwest;" vertex="1" parent="RDtk-2zoQ-puTfouhz2l-0">
          <mxGeometry y="120" width="160" height="8" as="geometry" />
        </mxCell>
        <mxCell id="RDtk-2zoQ-puTfouhz2l-3" value="&lt;&lt; interface &gt;&gt;&#xa;UserService" style="swimlane;fontStyle=1;align=center;verticalAlign=middle;childLayout=stackLayout;horizontal=1;startSize=40;horizontalStack=0;resizeParent=1;resizeLast=0;collapsible=1;marginBottom=0;rounded=0;shadow=0;strokeWidth=1;" vertex="1" parent="WIyWlLk6GJQsqaUBKTNV-1">
          <mxGeometry x="470" y="610" width="300" height="130" as="geometry">
            <mxRectangle x="260" y="20" width="170" height="26" as="alternateBounds" />
          </mxGeometry>
        </mxCell>
        <mxCell id="RDtk-2zoQ-puTfouhz2l-4" value="" style="line;html=1;strokeWidth=1;align=left;verticalAlign=middle;spacingTop=-1;spacingLeft=3;spacingRight=3;rotatable=0;labelPosition=right;points=[];portConstraint=eastwest;" vertex="1" parent="RDtk-2zoQ-puTfouhz2l-3">
          <mxGeometry y="40" width="300" height="20" as="geometry" />
        </mxCell>
        <mxCell id="RDtk-2zoQ-puTfouhz2l-5" value="&lt;p style=&quot;margin-top: 0pt; margin-bottom: 0pt; margin-left: 0in; direction: ltr; unicode-bidi: embed; word-break: normal;&quot;&gt;&lt;span style=&quot;font-size: 9pt; font-family: Calibri;&quot;&gt;+&lt;/span&gt;&lt;span style=&quot;font-size: 9pt; font-family: Calibri;&quot;&gt;&amp;nbsp;&lt;/span&gt;&lt;font face=&quot;Calibri&quot;&gt;postUserkaritouroku&lt;span style=&quot;font-size: 9pt;&quot;&gt;&amp;nbsp;( &lt;/span&gt;user&lt;span style=&quot;font-size: 9pt;&quot;&gt;&amp;nbsp;:&amp;nbsp;&lt;/span&gt;KariUser&lt;span style=&quot;font-size: 9pt;&quot;&gt;&amp;nbsp;&lt;/span&gt;&lt;/font&gt;&lt;span style=&quot;font-size: 9pt; font-family: Calibri;&quot;&gt;) &lt;/span&gt;&lt;span style=&quot;font-size: 9pt; font-family: Calibri;&quot;&gt;:&amp;nbsp;&lt;/span&gt;&lt;font face=&quot;Calibri&quot;&gt;Integer&lt;/font&gt;&lt;/p&gt;&lt;font face=&quot;Calibri&quot;&gt;+ getKariUser ( userId : Integer ) : KariUser&lt;br&gt;+ postEndUser ( endUser :&amp;nbsp;&lt;/font&gt;&lt;span style=&quot;font-family: Calibri;&quot;&gt;EndUser&lt;/span&gt;&lt;font face=&quot;Calibri&quot;&gt;, userId :&lt;/font&gt;&lt;span style=&quot;font-family: Calibri;&quot;&gt;Integer&amp;nbsp;&lt;/span&gt;&lt;font face=&quot;Calibri&quot;&gt;) void&lt;br&gt;+ getUsersOne ( userEmail :&lt;/font&gt;&lt;span style=&quot;font-family: Calibri;&quot;&gt;String&amp;nbsp;&lt;/span&gt;&lt;font face=&quot;Calibri&quot;&gt;) : Users&lt;br&gt;&lt;/font&gt;" style="text;align=left;verticalAlign=middle;resizable=0;points=[];autosize=1;strokeColor=none;fillColor=none;spacing=2;html=1;spacingTop=-1;" vertex="1" parent="RDtk-2zoQ-puTfouhz2l-3">
          <mxGeometry y="60" width="300" height="70" as="geometry" />
        </mxCell>
      </root>
    </mxGraphModel>
  </diagram>
  <diagram id="4ZqMZQ9mjObWF8yeSzGa" name="ページ2">
    <mxGraphModel dx="1422" dy="912" grid="1" gridSize="10" guides="1" tooltips="1" connect="1" arrows="1" fold="1" page="1" pageScale="1" pageWidth="827" pageHeight="1169" math="0" shadow="0">
      <root>
        <mxCell id="0" />
        <mxCell id="1" parent="0" />
        <mxCell id="9YRXlg7CODyMhK6-3Ufr-1" value="&lt;&lt; Controller &gt;&gt;&#xa;TopController" style="swimlane;fontStyle=3;align=center;verticalAlign=middle;childLayout=stackLayout;horizontal=1;startSize=40;horizontalStack=0;resizeParent=1;resizeLast=0;collapsible=1;marginBottom=0;rounded=0;shadow=0;strokeWidth=1;" vertex="1" parent="1">
          <mxGeometry x="30" y="30" width="600" height="290" as="geometry">
            <mxRectangle x="40" y="20" width="160" height="26" as="alternateBounds" />
          </mxGeometry>
        </mxCell>
        <mxCell id="9YRXlg7CODyMhK6-3Ufr-2" value="- productService : ProductService&lt;br&gt;-&amp;nbsp;categoryService :&amp;nbsp;CategoryService&lt;br&gt;-&amp;nbsp;categories :&amp;nbsp;Categories&lt;br&gt;-&amp;nbsp;productCategoryService :&amp;nbsp;ProductCategoryService&lt;br&gt;-&amp;nbsp;loginCheck :&amp;nbsp;LoginCheck&lt;br&gt;- modelMapper : ModelMapper&lt;br&gt;-&amp;nbsp;productOptionService :&amp;nbsp;ProductOptionService&lt;br&gt;-&amp;nbsp;cart :&amp;nbsp;Cart&lt;br&gt;-session :&amp;nbsp;HttpSession&lt;br&gt;" style="text;align=left;verticalAlign=middle;resizable=0;points=[];autosize=1;strokeColor=none;fillColor=none;fontStyle=0;horizontal=1;html=1;spacing=2;" vertex="1" parent="9YRXlg7CODyMhK6-3Ufr-1">
          <mxGeometry y="40" width="600" height="140" as="geometry" />
        </mxCell>
        <mxCell id="9YRXlg7CODyMhK6-3Ufr-3" value="" style="line;html=1;strokeWidth=1;align=left;verticalAlign=middle;spacingTop=-1;spacingLeft=3;spacingRight=3;rotatable=0;labelPosition=right;points=[];portConstraint=eastwest;" vertex="1" parent="9YRXlg7CODyMhK6-3Ufr-1">
          <mxGeometry y="180" width="600" height="10" as="geometry" />
        </mxCell>
        <mxCell id="9YRXlg7CODyMhK6-3Ufr-4" value="+ getProductsList( form : TopProductListForm,&amp;nbsp;&amp;nbsp;model : Model, request : HttpServletRequest ) : String&lt;br&gt;+&amp;nbsp;getCategoryProductsList( categoryName : String, form : TopProductListForm, model : Model ) :&amp;nbsp;String&lt;br&gt;+ getProductDetailPage(&amp;nbsp;productId :&amp;nbsp;Integer,&amp;nbsp;model :&amp;nbsp;Model,&amp;nbsp;form :&amp;nbsp;CartForm ) :&amp;nbsp;String&lt;br&gt;+&amp;nbsp;postAddToCart(&amp;nbsp;productId : Integer,&amp;nbsp;request :&amp;nbsp;HttpServletRequest,&amp;nbsp;model :&amp;nbsp;Model,&amp;nbsp;form :&amp;nbsp;CartForm ) :&amp;nbsp;String&lt;br&gt;+&amp;nbsp;getAddToCart(&amp;nbsp;model :&amp;nbsp;Model,&amp;nbsp;request :&amp;nbsp;HttpServletRequest ) :&amp;nbsp;String&lt;br&gt;+&amp;nbsp;postCartItemRemove(&amp;nbsp;mapListKey : Integer ) :&amp;nbsp;String" style="text;align=left;verticalAlign=middle;resizable=0;points=[];autosize=1;strokeColor=none;fillColor=none;html=1;spacing=2;spacingTop=0;" vertex="1" parent="9YRXlg7CODyMhK6-3Ufr-1">
          <mxGeometry y="190" width="600" height="100" as="geometry" />
        </mxCell>
        <mxCell id="UYSTZac5D5RRiQaIWxzV-1" value="&lt;&lt; Component &gt;&gt;&#xa;LoginCheck" style="swimlane;fontStyle=1;align=center;verticalAlign=middle;childLayout=stackLayout;horizontal=1;startSize=40;horizontalStack=0;resizeParent=1;resizeLast=0;collapsible=1;marginBottom=0;rounded=0;shadow=0;strokeWidth=1;" vertex="1" parent="1">
          <mxGeometry x="30" y="350" width="230" height="110" as="geometry">
            <mxRectangle x="260" y="20" width="170" height="26" as="alternateBounds" />
          </mxGeometry>
        </mxCell>
        <mxCell id="UYSTZac5D5RRiQaIWxzV-2" value="- userService : UserService" style="text;align=left;verticalAlign=top;spacingLeft=4;spacingRight=4;overflow=hidden;rotatable=0;points=[[0,0.5],[1,0.5]];portConstraint=eastwest;" vertex="1" parent="UYSTZac5D5RRiQaIWxzV-1">
          <mxGeometry y="40" width="230" height="20" as="geometry" />
        </mxCell>
        <mxCell id="UYSTZac5D5RRiQaIWxzV-3" value="" style="line;html=1;strokeWidth=1;align=left;verticalAlign=middle;spacingTop=-1;spacingLeft=3;spacingRight=3;rotatable=0;labelPosition=right;points=[];portConstraint=eastwest;" vertex="1" parent="UYSTZac5D5RRiQaIWxzV-1">
          <mxGeometry y="60" width="230" height="20" as="geometry" />
        </mxCell>
        <mxCell id="UYSTZac5D5RRiQaIWxzV-4" value="&lt;p style=&quot;margin-top: 0pt; margin-bottom: 0pt; margin-left: 0in; direction: ltr; unicode-bidi: embed; word-break: normal;&quot;&gt;&lt;span style=&quot;font-size: 9pt; font-family: Calibri;&quot;&gt;+&lt;/span&gt;&lt;span style=&quot;font-size: 9pt; font-family: Calibri;&quot;&gt;&amp;nbsp;&lt;/span&gt;&lt;font face=&quot;Calibri&quot;&gt;getLoginuser&amp;nbsp;&lt;span style=&quot;font-size: 9pt;&quot;&gt;( &lt;/span&gt;motourl&lt;span style=&quot;font-size: 9pt;&quot;&gt;&amp;nbsp;:&amp;nbsp;&lt;/span&gt;String&amp;nbsp;&lt;span style=&quot;font-size: 9pt;&quot;&gt;) &lt;/span&gt;&lt;/font&gt;&lt;span style=&quot;font-size: 9pt; font-family: Calibri;&quot;&gt;: String&lt;/span&gt;&lt;/p&gt;" style="text;align=left;verticalAlign=middle;resizable=0;points=[];autosize=1;strokeColor=none;fillColor=none;spacing=2;html=1;spacingTop=-1;" vertex="1" parent="UYSTZac5D5RRiQaIWxzV-1">
          <mxGeometry y="80" width="230" height="20" as="geometry" />
        </mxCell>
        <mxCell id="eSVihMehW1ZabZovNLHh-1" value="TopProductListForm" style="swimlane;fontStyle=1;align=center;verticalAlign=middle;childLayout=stackLayout;horizontal=1;startSize=26;horizontalStack=0;resizeParent=1;resizeLast=0;collapsible=1;marginBottom=0;rounded=0;shadow=0;strokeWidth=1;" vertex="1" parent="1">
          <mxGeometry x="30" y="600" width="160" height="70" as="geometry">
            <mxRectangle x="130" y="380" width="160" height="26" as="alternateBounds" />
          </mxGeometry>
        </mxCell>
        <mxCell id="eSVihMehW1ZabZovNLHh-2" value="- productName : String" style="text;align=left;verticalAlign=top;spacingLeft=4;spacingRight=4;overflow=hidden;rotatable=0;points=[[0,0.5],[1,0.5]];portConstraint=eastwest;" vertex="1" parent="eSVihMehW1ZabZovNLHh-1">
          <mxGeometry y="26" width="160" height="26" as="geometry" />
        </mxCell>
        <mxCell id="eSVihMehW1ZabZovNLHh-3" value="" style="line;html=1;strokeWidth=1;align=left;verticalAlign=middle;spacingTop=-1;spacingLeft=3;spacingRight=3;rotatable=0;labelPosition=right;points=[];portConstraint=eastwest;" vertex="1" parent="eSVihMehW1ZabZovNLHh-1">
          <mxGeometry y="52" width="160" height="8" as="geometry" />
        </mxCell>
        <mxCell id="eSVihMehW1ZabZovNLHh-4" value="&lt;&lt; Configuration &gt;&gt;&#xa;JavaConfig" style="swimlane;fontStyle=1;align=center;verticalAlign=middle;childLayout=stackLayout;horizontal=1;startSize=40;horizontalStack=0;resizeParent=1;resizeLast=0;collapsible=1;marginBottom=0;rounded=0;shadow=0;strokeWidth=1;" vertex="1" parent="1">
          <mxGeometry x="30" y="480" width="200" height="90" as="geometry">
            <mxRectangle x="340" y="380" width="170" height="26" as="alternateBounds" />
          </mxGeometry>
        </mxCell>
        <mxCell id="eSVihMehW1ZabZovNLHh-5" value="" style="line;html=1;strokeWidth=1;align=left;verticalAlign=middle;spacingTop=-1;spacingLeft=3;spacingRight=3;rotatable=0;labelPosition=right;points=[];portConstraint=eastwest;" vertex="1" parent="eSVihMehW1ZabZovNLHh-4">
          <mxGeometry y="40" width="200" height="20" as="geometry" />
        </mxCell>
        <mxCell id="eSVihMehW1ZabZovNLHh-6" value="+ modelMapper() : ModelMapper" style="text;align=left;verticalAlign=middle;resizable=0;points=[];autosize=1;strokeColor=none;fillColor=none;spacing=2;html=1;spacingTop=-1;" vertex="1" parent="eSVihMehW1ZabZovNLHh-4">
          <mxGeometry y="60" width="200" height="20" as="geometry" />
        </mxCell>
      </root>
    </mxGraphModel>
  </diagram>
</mxfile>
